<svg width="180" height="180" viewBox="0 0 180 180" fill="none" xmlns="http://www.w3.org/2000/svg" role="img" aria-label="Jangid Interior favicon">
  <rect width="180" height="180" rx="36" fill="#F7F3EA"/>
  <g transform="translate(28 18) scale(3.6)">
    <path d="M20 2 C20 2 20 6 20 6" stroke="#C9A66B" stroke-width="1.5" stroke-linecap="round"/>
    <circle cx="20" cy="8" r="2" stroke="#C9A66B" stroke-width="1.2" fill="none"/>
    <path d="M12 14 Q12 10 20 10 Q28 10 28 14" stroke="#C9A66B" stroke-width="1.4" fill="none" stroke-linecap="round"/>
    <path d="M14 14 L14 20" stroke="#C9A66B" stroke-width="1.2" stroke-linecap="round"/>
    <path d="M20 12 L20 20" stroke="#C9A66B" stroke-width="1.2" stroke-linecap="round"/>
    <path d="M26 14 L26 20" stroke="#C9A66B" stroke-width="1.2" stroke-linecap="round"/>
    <path d="M10 20 Q10 24 14 24 Q18 24 18 20" stroke="#C9A66B" stroke-width="1.3" fill="none" stroke-linecap="round"/>
    <path d="M16 20 Q16 25 20 25 Q24 25 24 20" stroke="#C9A66B" stroke-width="1.3" fill="none" stroke-linecap="round"/>
    <path d="M22 20 Q22 24 26 24 Q30 24 30 20" stroke="#C9A66B" stroke-width="1.3" fill="none" stroke-linecap="round"/>
    <path d="M17 28 Q20 32 23 28" stroke="#C9A66B" stroke-width="1.2" fill="none" stroke-linecap="round"/>
    <circle cx="20" cy="34" r="1.5" fill="#C9A66B"/>
  </g>
</svg>